<svg width="56" height="56" viewBox="0 0 56 56" fill="none" xmlns="http://www.w3.org/2000/svg">
<rect x="-7" y="-7" width="70" height="70" rx="35" fill="#E84393"/>
<path d="M32.1134 19.6C33.4808 19.8668 34.7375 20.5356 35.7227 21.5207C36.7078 22.5059 37.3766 23.7626 37.6434 25.13M32.1134 14C34.9543 14.3156 37.6036 15.5878 39.6261 17.6078C41.6486 19.6278 42.9242 22.2754 43.2434 25.116M41.8434 36.288V40.488C41.8449 40.8779 41.7651 41.2638 41.6089 41.6211C41.4527 41.9783 41.2236 42.299 40.9363 42.5626C40.649 42.8262 40.3098 43.0269 39.9404 43.1518C39.5711 43.2767 39.1797 43.3231 38.7914 43.288C34.4833 42.8199 30.3452 41.3478 26.7094 38.99C23.3267 36.8405 20.4588 33.9726 18.3094 30.59C15.9433 26.9377 14.4709 22.7794 14.0114 18.452C13.9764 18.0649 14.0224 17.6747 14.1465 17.3063C14.2705 16.9379 14.47 16.5994 14.732 16.3123C14.9941 16.0252 15.3131 15.7958 15.6687 15.6387C16.0243 15.4817 16.4086 15.4004 16.7974 15.4H20.9974C21.6768 15.3933 22.3355 15.6339 22.8506 16.0769C23.3658 16.52 23.7023 17.1352 23.7974 17.808C23.9746 19.1521 24.3034 20.4718 24.7774 21.742C24.9657 22.2431 25.0065 22.7877 24.8948 23.3112C24.7832 23.8348 24.5238 24.3154 24.1474 24.696L22.3694 26.474C24.3623 29.979 27.2644 32.881 30.7694 34.874L32.5474 33.096C32.928 32.7196 33.4086 32.4602 33.9321 32.3485C34.4557 32.2369 35.0003 32.2776 35.5014 32.466C36.7715 32.94 38.0913 33.2687 39.4354 33.446C40.1154 33.5419 40.7365 33.8845 41.1805 34.4085C41.6245 34.9325 41.8604 35.6014 41.8434 36.288Z" stroke="#FFEAA7" stroke-width="3" stroke-linecap="round" stroke-linejoin="round"/>
</svg>
