<svg width="197" height="144" viewBox="0 0 197 144" fill="none" xmlns="http://www.w3.org/2000/svg">
<g clip-path="url(#clip0_25593_5280)">
<rect opacity="0.24" width="631.694" height="352.523" rx="45.4479" transform="matrix(0.707107 0.707107 0.707107 -0.707107 -317.684 231.866)" fill="#6C5CE7"/>
<g style="mix-blend-mode:multiply" opacity="0.24">
<rect width="631.694" height="207.751" rx="45.4479" transform="matrix(0.707107 0.707107 0.707107 -0.707107 -61.9153 179.532)" fill="#FDCB6E"/>
</g>
</g>
<g clip-path="url(#clip1_25593_5280)">
<path d="M145.157 134.63C145.157 135.96 146.236 137.038 147.565 137.038C148.895 137.038 149.973 135.96 149.973 134.63C149.973 133.3 148.895 132.222 147.565 132.222C146.236 132.222 145.157 133.3 145.157 134.63Z" fill="#A29BFE"/>
<path d="M153.184 142.657C153.184 143.986 154.262 145.064 155.592 145.064C156.922 145.064 158 143.986 158 142.657C158 141.327 156.922 140.249 155.592 140.249C154.262 140.249 153.184 141.327 153.184 142.657Z" fill="#A29BFE"/>
<path d="M129.104 118.577C129.104 119.907 130.182 120.985 131.512 120.985C132.842 120.985 133.92 119.907 133.92 118.577C133.92 117.247 132.842 116.169 131.512 116.169C130.182 116.169 129.104 117.247 129.104 118.577Z" fill="#A29BFE"/>
<path d="M137.131 126.604C137.131 127.933 138.209 129.011 139.539 129.011C140.869 129.011 141.947 127.933 141.947 126.604C141.947 125.274 140.869 124.196 139.539 124.196C138.209 124.196 137.131 125.274 137.131 126.604Z" fill="#A29BFE"/>
<path d="M129.104 134.63C129.104 135.96 130.182 137.038 131.512 137.038C132.842 137.038 133.92 135.96 133.92 134.63C133.92 133.3 132.842 132.222 131.512 132.222C130.182 132.222 129.104 133.3 129.104 134.63Z" fill="#A29BFE"/>
<path d="M137.131 142.657C137.131 143.986 138.209 145.064 139.539 145.064C140.869 145.064 141.947 143.986 141.947 142.657C141.947 141.327 140.869 140.249 139.539 140.249C138.209 140.249 137.131 141.327 137.131 142.657Z" fill="#A29BFE"/>
<path d="M113.051 102.524C113.051 103.854 114.129 104.932 115.459 104.932C116.789 104.932 117.867 103.854 117.867 102.524C117.867 101.194 116.789 100.116 115.459 100.116C114.129 100.116 113.051 101.194 113.051 102.524Z" fill="#A29BFE"/>
<path d="M121.078 110.55C121.078 111.88 122.156 112.958 123.486 112.958C124.816 112.958 125.894 111.88 125.894 110.55C125.894 109.22 124.816 108.142 123.486 108.142C122.156 108.142 121.078 109.22 121.078 110.55Z" fill="#A29BFE"/>
<path d="M113.051 118.577C113.051 119.907 114.129 120.985 115.459 120.985C116.789 120.985 117.867 119.907 117.867 118.577C117.867 117.247 116.789 116.169 115.459 116.169C114.129 116.169 113.051 117.247 113.051 118.577Z" fill="#A29BFE"/>
<path d="M121.078 126.604C121.078 127.933 122.156 129.011 123.486 129.011C124.816 129.011 125.894 127.933 125.894 126.604C125.894 125.274 124.816 124.196 123.486 124.196C122.156 124.196 121.078 125.274 121.078 126.604Z" fill="#A29BFE"/>
<path d="M113.051 134.63C113.051 135.96 114.129 137.038 115.459 137.038C116.789 137.038 117.867 135.96 117.867 134.63C117.867 133.3 116.789 132.222 115.459 132.222C114.129 132.222 113.051 133.3 113.051 134.63Z" fill="#A29BFE"/>
<path d="M121.078 142.657C121.078 143.986 122.156 145.064 123.486 145.064C124.816 145.064 125.894 143.986 125.894 142.657C125.894 141.327 124.816 140.249 123.486 140.249C122.156 140.249 121.078 141.327 121.078 142.657Z" fill="#A29BFE"/>
<path d="M105.025 110.55C105.025 111.88 106.103 112.958 107.433 112.958C108.763 112.958 109.841 111.88 109.841 110.55C109.841 109.22 108.763 108.142 107.433 108.142C106.103 108.142 105.025 109.22 105.025 110.55Z" fill="#A29BFE"/>
<path d="M96.9982 118.577C96.9982 119.907 98.0762 120.985 99.4061 120.985C100.736 120.985 101.814 119.907 101.814 118.577C101.814 117.247 100.736 116.169 99.4061 116.169C98.0762 116.169 96.9982 117.247 96.9982 118.577Z" fill="#A29BFE"/>
<path d="M105.025 126.604C105.025 127.933 106.103 129.011 107.433 129.011C108.763 129.011 109.841 127.933 109.841 126.604C109.841 125.274 108.763 124.196 107.433 124.196C106.103 124.196 105.025 125.274 105.025 126.604Z" fill="#A29BFE"/>
<path d="M96.9982 134.63C96.9982 135.96 98.0762 137.038 99.4061 137.038C100.736 137.038 101.814 135.96 101.814 134.63C101.814 133.3 100.736 132.222 99.4061 132.222C98.0762 132.222 96.9982 133.3 96.9982 134.63Z" fill="#A29BFE"/>
<path d="M105.025 142.657C105.025 143.986 106.103 145.064 107.433 145.064C108.763 145.064 109.841 143.986 109.841 142.657C109.841 141.327 108.763 140.249 107.433 140.249C106.103 140.249 105.025 141.327 105.025 142.657Z" fill="#A29BFE"/>
<path d="M88.9717 126.604C88.9717 127.933 90.0497 129.011 91.3796 129.011C92.7095 129.011 93.7876 127.933 93.7876 126.604C93.7876 125.274 92.7095 124.196 91.3796 124.196C90.0497 124.196 88.9717 125.274 88.9717 126.604Z" fill="#A29BFE"/>
<path d="M80.9451 134.63C80.9451 135.96 82.0231 137.038 83.353 137.038C84.6829 137.038 85.761 135.96 85.761 134.63C85.761 133.3 84.6829 132.222 83.353 132.222C82.0231 132.222 80.9451 133.3 80.9451 134.63Z" fill="#A29BFE"/>
<path d="M88.9717 142.657C88.9717 143.986 90.0497 145.064 91.3796 145.064C92.7095 145.064 93.7876 143.986 93.7876 142.657C93.7876 141.327 92.7095 140.249 91.3796 140.249C90.0497 140.249 88.9717 141.327 88.9717 142.657Z" fill="#A29BFE"/>
<path d="M72.9184 142.657C72.9184 143.986 73.9965 145.064 75.3264 145.064C76.6563 145.064 77.7344 143.986 77.7344 142.657C77.7344 141.327 76.6563 140.249 75.3264 140.249C73.9965 140.249 72.9184 141.327 72.9184 142.657Z" fill="#A29BFE"/>
</g>
<defs>
<clipPath id="clip0_25593_5280">
<rect width="555.87" height="154.036" fill="white" transform="matrix(1 0 0 -1 -359 154.036)"/>
</clipPath>
<clipPath id="clip1_25593_5280">
<rect width="75.2662" height="102.636" fill="white" transform="translate(158 76.0361) rotate(90)"/>
</clipPath>
</defs>
</svg>
