<svg width="53" height="53" viewBox="0 0 53 53" fill="none" xmlns="http://www.w3.org/2000/svg">
<rect width="53" height="53" rx="12" fill="#E84393"/>
<path d="M30.4499 22.05C32.1208 22.05 33.7232 22.7138 34.9047 23.8953C36.0862 25.0768 36.7499 26.6792 36.7499 28.35V35.7H32.5499V28.35C32.5499 27.7931 32.3287 27.259 31.9348 26.8651C31.541 26.4713 31.0069 26.25 30.4499 26.25C29.8929 26.25 29.3588 26.4713 28.965 26.8651C28.5712 27.259 28.3499 27.7931 28.3499 28.35V35.7H24.1499V28.35C24.1499 26.6792 24.8137 25.0768 25.9951 23.8953C27.1766 22.7138 28.779 22.05 30.4499 22.05V22.05Z" stroke="white" stroke-width="2" stroke-linecap="round" stroke-linejoin="round"/>
<path d="M19.95 23.1001H15.75V35.7001H19.95V23.1001Z" stroke="white" stroke-width="2" stroke-linecap="round" stroke-linejoin="round"/>
<path d="M17.85 19.95C19.0098 19.95 19.95 19.0098 19.95 17.85C19.95 16.6902 19.0098 15.75 17.85 15.75C16.6902 15.75 15.75 16.6902 15.75 17.85C15.75 19.0098 16.6902 19.95 17.85 19.95Z" stroke="white" stroke-width="2" stroke-linecap="round" stroke-linejoin="round"/>
</svg>
